<mxfile host="app.diagrams.net" agent="Mozilla/5.0 (Macintosh; Intel Mac OS X 10_15_7) AppleWebKit/537.36 (KHTML, like Gecko) Chrome/136.0.0.0 Safari/537.36" version="27.0.9" pages="3">
  <diagram id="C5RBs43oDa-KdzZeNtuy" name="Page-1">
    <mxGraphModel dx="2528" dy="475" grid="1" gridSize="10" guides="1" tooltips="1" connect="1" arrows="1" fold="1" page="1" pageScale="1" pageWidth="827" pageHeight="1169" math="0" shadow="0">
      <root>
        <mxCell id="WIyWlLk6GJQsqaUBKTNV-0" />
        <mxCell id="WIyWlLk6GJQsqaUBKTNV-1" parent="WIyWlLk6GJQsqaUBKTNV-0" />
        <mxCell id="h9WK51subfuifpHOhjPq-0" value="Telas" style="swimlane;fontStyle=2;align=center;verticalAlign=top;childLayout=stackLayout;horizontal=1;startSize=26;horizontalStack=0;resizeParent=1;resizeLast=0;collapsible=1;marginBottom=0;rounded=0;shadow=0;strokeWidth=1;" vertex="1" parent="WIyWlLk6GJQsqaUBKTNV-1">
          <mxGeometry x="210" y="300" width="180" height="216" as="geometry">
            <mxRectangle x="230" y="140" width="160" height="26" as="alternateBounds" />
          </mxGeometry>
        </mxCell>
        <mxCell id="h9WK51subfuifpHOhjPq-2" value="int opcaoSelecionada" style="text;align=left;verticalAlign=top;spacingLeft=4;spacingRight=4;overflow=hidden;rotatable=0;points=[[0,0.5],[1,0.5]];portConstraint=eastwest;rounded=0;shadow=0;html=0;" vertex="1" parent="h9WK51subfuifpHOhjPq-0">
          <mxGeometry y="26" width="180" height="26" as="geometry" />
        </mxCell>
        <mxCell id="h9WK51subfuifpHOhjPq-3" value="int energia&#xa;" style="text;align=left;verticalAlign=top;spacingLeft=4;spacingRight=4;overflow=hidden;rotatable=0;points=[[0,0.5],[1,0.5]];portConstraint=eastwest;rounded=0;shadow=0;html=0;" vertex="1" parent="h9WK51subfuifpHOhjPq-0">
          <mxGeometry y="52" width="180" height="26" as="geometry" />
        </mxCell>
        <mxCell id="h9WK51subfuifpHOhjPq-4" value="" style="line;html=1;strokeWidth=1;align=left;verticalAlign=middle;spacingTop=-1;spacingLeft=3;spacingRight=3;rotatable=0;labelPosition=right;points=[];portConstraint=eastwest;" vertex="1" parent="h9WK51subfuifpHOhjPq-0">
          <mxGeometry y="78" width="180" height="8" as="geometry" />
        </mxCell>
        <mxCell id="h9WK51subfuifpHOhjPq-5" value="void escreverOpcoesNaTela()" style="text;align=left;verticalAlign=top;spacingLeft=4;spacingRight=4;overflow=hidden;rotatable=0;points=[[0,0.5],[1,0.5]];portConstraint=eastwest;" vertex="1" parent="h9WK51subfuifpHOhjPq-0">
          <mxGeometry y="86" width="180" height="26" as="geometry" />
        </mxCell>
        <mxCell id="h9WK51subfuifpHOhjPq-68" value="void irParaCima( )" style="text;align=left;verticalAlign=top;spacingLeft=4;spacingRight=4;overflow=hidden;rotatable=0;points=[[0,0.5],[1,0.5]];portConstraint=eastwest;" vertex="1" parent="h9WK51subfuifpHOhjPq-0">
          <mxGeometry y="112" width="180" height="26" as="geometry" />
        </mxCell>
        <mxCell id="h9WK51subfuifpHOhjPq-69" value="void irParaBaixo( )" style="text;align=left;verticalAlign=top;spacingLeft=4;spacingRight=4;overflow=hidden;rotatable=0;points=[[0,0.5],[1,0.5]];portConstraint=eastwest;" vertex="1" parent="h9WK51subfuifpHOhjPq-0">
          <mxGeometry y="138" width="180" height="26" as="geometry" />
        </mxCell>
        <mxCell id="h9WK51subfuifpHOhjPq-70" value="void confirmar( )" style="text;align=left;verticalAlign=top;spacingLeft=4;spacingRight=4;overflow=hidden;rotatable=0;points=[[0,0.5],[1,0.5]];portConstraint=eastwest;" vertex="1" parent="h9WK51subfuifpHOhjPq-0">
          <mxGeometry y="164" width="180" height="26" as="geometry" />
        </mxCell>
        <mxCell id="h9WK51subfuifpHOhjPq-7" value="Personagem" style="swimlane;fontStyle=2;align=center;verticalAlign=top;childLayout=stackLayout;horizontal=1;startSize=26;horizontalStack=0;resizeParent=1;resizeLast=0;collapsible=1;marginBottom=0;rounded=0;shadow=0;strokeWidth=1;" vertex="1" parent="WIyWlLk6GJQsqaUBKTNV-1">
          <mxGeometry x="-460" y="320" width="210" height="398" as="geometry">
            <mxRectangle x="230" y="140" width="160" height="26" as="alternateBounds" />
          </mxGeometry>
        </mxCell>
        <mxCell id="h9WK51subfuifpHOhjPq-8" value="- string nome" style="text;align=left;verticalAlign=top;spacingLeft=4;spacingRight=4;overflow=hidden;rotatable=0;points=[[0,0.5],[1,0.5]];portConstraint=eastwest;" vertex="1" parent="h9WK51subfuifpHOhjPq-7">
          <mxGeometry y="26" width="210" height="26" as="geometry" />
        </mxCell>
        <mxCell id="h9WK51subfuifpHOhjPq-9" value="- int energia" style="text;align=left;verticalAlign=top;spacingLeft=4;spacingRight=4;overflow=hidden;rotatable=0;points=[[0,0.5],[1,0.5]];portConstraint=eastwest;rounded=0;shadow=0;html=0;" vertex="1" parent="h9WK51subfuifpHOhjPq-7">
          <mxGeometry y="52" width="210" height="26" as="geometry" />
        </mxCell>
        <mxCell id="h9WK51subfuifpHOhjPq-14" value="- int sorte" style="text;align=left;verticalAlign=top;spacingLeft=4;spacingRight=4;overflow=hidden;rotatable=0;points=[[0,0.5],[1,0.5]];portConstraint=eastwest;rounded=0;shadow=0;html=0;" vertex="1" parent="h9WK51subfuifpHOhjPq-7">
          <mxGeometry y="78" width="210" height="26" as="geometry" />
        </mxCell>
        <mxCell id="h9WK51subfuifpHOhjPq-10" value="- Grimorio magias" style="text;align=left;verticalAlign=top;spacingLeft=4;spacingRight=4;overflow=hidden;rotatable=0;points=[[0,0.5],[1,0.5]];portConstraint=eastwest;rounded=0;shadow=0;html=0;" vertex="1" parent="h9WK51subfuifpHOhjPq-7">
          <mxGeometry y="104" width="210" height="26" as="geometry" />
        </mxCell>
        <mxCell id="h9WK51subfuifpHOhjPq-16" value="- Item inventario[ 10 ]" style="text;align=left;verticalAlign=top;spacingLeft=4;spacingRight=4;overflow=hidden;rotatable=0;points=[[0,0.5],[1,0.5]];portConstraint=eastwest;rounded=0;shadow=0;html=0;" vertex="1" parent="h9WK51subfuifpHOhjPq-7">
          <mxGeometry y="130" width="210" height="26" as="geometry" />
        </mxCell>
        <mxCell id="h9WK51subfuifpHOhjPq-17" value="- Item tesouros[ 10 ]" style="text;align=left;verticalAlign=top;spacingLeft=4;spacingRight=4;overflow=hidden;rotatable=0;points=[[0,0.5],[1,0.5]];portConstraint=eastwest;rounded=0;shadow=0;html=0;" vertex="1" parent="h9WK51subfuifpHOhjPq-7">
          <mxGeometry y="156" width="210" height="26" as="geometry" />
        </mxCell>
        <mxCell id="h9WK51subfuifpHOhjPq-15" value="- int provisoes" style="text;align=left;verticalAlign=top;spacingLeft=4;spacingRight=4;overflow=hidden;rotatable=0;points=[[0,0.5],[1,0.5]];portConstraint=eastwest;rounded=0;shadow=0;html=0;" vertex="1" parent="h9WK51subfuifpHOhjPq-7">
          <mxGeometry y="182" width="210" height="26" as="geometry" />
        </mxCell>
        <mxCell id="h9WK51subfuifpHOhjPq-11" value="" style="line;html=1;strokeWidth=1;align=left;verticalAlign=middle;spacingTop=-1;spacingLeft=3;spacingRight=3;rotatable=0;labelPosition=right;points=[];portConstraint=eastwest;" vertex="1" parent="h9WK51subfuifpHOhjPq-7">
          <mxGeometry y="208" width="210" height="8" as="geometry" />
        </mxCell>
        <mxCell id="h9WK51subfuifpHOhjPq-12" value="Get e Set de todos atributos" style="text;align=left;verticalAlign=top;spacingLeft=4;spacingRight=4;overflow=hidden;rotatable=0;points=[[0,0.5],[1,0.5]];portConstraint=eastwest;" vertex="1" parent="h9WK51subfuifpHOhjPq-7">
          <mxGeometry y="216" width="210" height="26" as="geometry" />
        </mxCell>
        <mxCell id="h9WK51subfuifpHOhjPq-24" value="void addEnergia( )" style="text;align=left;verticalAlign=top;spacingLeft=4;spacingRight=4;overflow=hidden;rotatable=0;points=[[0,0.5],[1,0.5]];portConstraint=eastwest;" vertex="1" parent="h9WK51subfuifpHOhjPq-7">
          <mxGeometry y="242" width="210" height="26" as="geometry" />
        </mxCell>
        <mxCell id="h9WK51subfuifpHOhjPq-25" value="void removerEnergia( )" style="text;align=left;verticalAlign=top;spacingLeft=4;spacingRight=4;overflow=hidden;rotatable=0;points=[[0,0.5],[1,0.5]];portConstraint=eastwest;" vertex="1" parent="h9WK51subfuifpHOhjPq-7">
          <mxGeometry y="268" width="210" height="26" as="geometry" />
        </mxCell>
        <mxCell id="h9WK51subfuifpHOhjPq-19" value="int testeDeAtaque(bool usarSorte)" style="text;align=left;verticalAlign=top;spacingLeft=4;spacingRight=4;overflow=hidden;rotatable=0;points=[[0,0.5],[1,0.5]];portConstraint=eastwest;" vertex="1" parent="h9WK51subfuifpHOhjPq-7">
          <mxGeometry y="294" width="210" height="26" as="geometry" />
        </mxCell>
        <mxCell id="h9WK51subfuifpHOhjPq-21" value="void utilizarProvisao( )" style="text;align=left;verticalAlign=top;spacingLeft=4;spacingRight=4;overflow=hidden;rotatable=0;points=[[0,0.5],[1,0.5]];portConstraint=eastwest;" vertex="1" parent="h9WK51subfuifpHOhjPq-7">
          <mxGeometry y="320" width="210" height="26" as="geometry" />
        </mxCell>
        <mxCell id="h9WK51subfuifpHOhjPq-23" value="bool utilizarProvisao( )" style="text;align=left;verticalAlign=top;spacingLeft=4;spacingRight=4;overflow=hidden;rotatable=0;points=[[0,0.5],[1,0.5]];portConstraint=eastwest;" vertex="1" parent="h9WK51subfuifpHOhjPq-7">
          <mxGeometry y="346" width="210" height="26" as="geometry" />
        </mxCell>
        <mxCell id="h9WK51subfuifpHOhjPq-22" value="Â " style="text;align=left;verticalAlign=top;spacingLeft=4;spacingRight=4;overflow=hidden;rotatable=0;points=[[0,0.5],[1,0.5]];portConstraint=eastwest;" vertex="1" parent="h9WK51subfuifpHOhjPq-7">
          <mxGeometry y="372" width="210" height="26" as="geometry" />
        </mxCell>
        <mxCell id="h9WK51subfuifpHOhjPq-13" value="" style="resizable=0;align=left;verticalAlign=bottom;labelBackgroundColor=none;fontSize=12;" connectable="0" vertex="1" parent="WIyWlLk6GJQsqaUBKTNV-1">
          <mxGeometry x="-300" y="393" as="geometry" />
        </mxCell>
        <mxCell id="h9WK51subfuifpHOhjPq-63" style="edgeStyle=orthogonalEdgeStyle;rounded=0;orthogonalLoop=1;jettySize=auto;html=1;exitX=0.5;exitY=0;exitDx=0;exitDy=0;entryX=0.5;entryY=1;entryDx=0;entryDy=0;" edge="1" parent="WIyWlLk6GJQsqaUBKTNV-1" source="h9WK51subfuifpHOhjPq-26" target="h9WK51subfuifpHOhjPq-7">
          <mxGeometry relative="1" as="geometry" />
        </mxCell>
        <mxCell id="h9WK51subfuifpHOhjPq-26" value="MOB" style="swimlane;fontStyle=2;align=center;verticalAlign=top;childLayout=stackLayout;horizontal=1;startSize=26;horizontalStack=0;resizeParent=1;resizeLast=0;collapsible=1;marginBottom=0;rounded=0;shadow=0;strokeWidth=1;" vertex="1" parent="WIyWlLk6GJQsqaUBKTNV-1">
          <mxGeometry x="-340" y="830" width="210" height="112" as="geometry">
            <mxRectangle x="230" y="140" width="160" height="26" as="alternateBounds" />
          </mxGeometry>
        </mxCell>
        <mxCell id="h9WK51subfuifpHOhjPq-31" value="-----------------------------------" style="text;align=left;verticalAlign=top;spacingLeft=4;spacingRight=4;overflow=hidden;rotatable=0;points=[[0,0.5],[1,0.5]];portConstraint=eastwest;rounded=0;shadow=0;html=0;" vertex="1" parent="h9WK51subfuifpHOhjPq-26">
          <mxGeometry y="26" width="210" height="26" as="geometry" />
        </mxCell>
        <mxCell id="h9WK51subfuifpHOhjPq-34" value="" style="line;html=1;strokeWidth=1;align=left;verticalAlign=middle;spacingTop=-1;spacingLeft=3;spacingRight=3;rotatable=0;labelPosition=right;points=[];portConstraint=eastwest;" vertex="1" parent="h9WK51subfuifpHOhjPq-26">
          <mxGeometry y="52" width="210" height="8" as="geometry" />
        </mxCell>
        <mxCell id="h9WK51subfuifpHOhjPq-35" value="-----------------------------------" style="text;align=left;verticalAlign=top;spacingLeft=4;spacingRight=4;overflow=hidden;rotatable=0;points=[[0,0.5],[1,0.5]];portConstraint=eastwest;" vertex="1" parent="h9WK51subfuifpHOhjPq-26">
          <mxGeometry y="60" width="210" height="26" as="geometry" />
        </mxCell>
        <mxCell id="h9WK51subfuifpHOhjPq-41" value="Â " style="text;align=left;verticalAlign=top;spacingLeft=4;spacingRight=4;overflow=hidden;rotatable=0;points=[[0,0.5],[1,0.5]];portConstraint=eastwest;" vertex="1" parent="h9WK51subfuifpHOhjPq-26">
          <mxGeometry y="86" width="210" height="26" as="geometry" />
        </mxCell>
        <mxCell id="h9WK51subfuifpHOhjPq-62" style="edgeStyle=orthogonalEdgeStyle;rounded=0;orthogonalLoop=1;jettySize=auto;html=1;exitX=0.5;exitY=0;exitDx=0;exitDy=0;entryX=0.5;entryY=1;entryDx=0;entryDy=0;" edge="1" parent="WIyWlLk6GJQsqaUBKTNV-1" source="h9WK51subfuifpHOhjPq-42" target="h9WK51subfuifpHOhjPq-7">
          <mxGeometry relative="1" as="geometry" />
        </mxCell>
        <mxCell id="h9WK51subfuifpHOhjPq-42" value="Heroi" style="swimlane;fontStyle=2;align=center;verticalAlign=top;childLayout=stackLayout;horizontal=1;startSize=26;horizontalStack=0;resizeParent=1;resizeLast=0;collapsible=1;marginBottom=0;rounded=0;shadow=0;strokeWidth=1;" vertex="1" parent="WIyWlLk6GJQsqaUBKTNV-1">
          <mxGeometry x="-600" y="830" width="210" height="112" as="geometry">
            <mxRectangle x="230" y="140" width="160" height="26" as="alternateBounds" />
          </mxGeometry>
        </mxCell>
        <mxCell id="h9WK51subfuifpHOhjPq-43" value="-----------------------------------" style="text;align=left;verticalAlign=top;spacingLeft=4;spacingRight=4;overflow=hidden;rotatable=0;points=[[0,0.5],[1,0.5]];portConstraint=eastwest;rounded=0;shadow=0;html=0;" vertex="1" parent="h9WK51subfuifpHOhjPq-42">
          <mxGeometry y="26" width="210" height="26" as="geometry" />
        </mxCell>
        <mxCell id="h9WK51subfuifpHOhjPq-44" value="" style="line;html=1;strokeWidth=1;align=left;verticalAlign=middle;spacingTop=-1;spacingLeft=3;spacingRight=3;rotatable=0;labelPosition=right;points=[];portConstraint=eastwest;" vertex="1" parent="h9WK51subfuifpHOhjPq-42">
          <mxGeometry y="52" width="210" height="8" as="geometry" />
        </mxCell>
        <mxCell id="h9WK51subfuifpHOhjPq-45" value="-----------------------------------" style="text;align=left;verticalAlign=top;spacingLeft=4;spacingRight=4;overflow=hidden;rotatable=0;points=[[0,0.5],[1,0.5]];portConstraint=eastwest;" vertex="1" parent="h9WK51subfuifpHOhjPq-42">
          <mxGeometry y="60" width="210" height="26" as="geometry" />
        </mxCell>
        <mxCell id="h9WK51subfuifpHOhjPq-46" value="Â " style="text;align=left;verticalAlign=top;spacingLeft=4;spacingRight=4;overflow=hidden;rotatable=0;points=[[0,0.5],[1,0.5]];portConstraint=eastwest;" vertex="1" parent="h9WK51subfuifpHOhjPq-42">
          <mxGeometry y="86" width="210" height="26" as="geometry" />
        </mxCell>
        <mxCell id="h9WK51subfuifpHOhjPq-47" value="Mini Boss" style="swimlane;fontStyle=2;align=center;verticalAlign=top;childLayout=stackLayout;horizontal=1;startSize=26;horizontalStack=0;resizeParent=1;resizeLast=0;collapsible=1;marginBottom=0;rounded=0;shadow=0;strokeWidth=1;" vertex="1" parent="WIyWlLk6GJQsqaUBKTNV-1">
          <mxGeometry x="-460" y="1040" width="210" height="112" as="geometry">
            <mxRectangle x="230" y="140" width="160" height="26" as="alternateBounds" />
          </mxGeometry>
        </mxCell>
        <mxCell id="h9WK51subfuifpHOhjPq-48" value="-----------------------------------" style="text;align=left;verticalAlign=top;spacingLeft=4;spacingRight=4;overflow=hidden;rotatable=0;points=[[0,0.5],[1,0.5]];portConstraint=eastwest;rounded=0;shadow=0;html=0;" vertex="1" parent="h9WK51subfuifpHOhjPq-47">
          <mxGeometry y="26" width="210" height="26" as="geometry" />
        </mxCell>
        <mxCell id="h9WK51subfuifpHOhjPq-49" value="" style="line;html=1;strokeWidth=1;align=left;verticalAlign=middle;spacingTop=-1;spacingLeft=3;spacingRight=3;rotatable=0;labelPosition=right;points=[];portConstraint=eastwest;" vertex="1" parent="h9WK51subfuifpHOhjPq-47">
          <mxGeometry y="52" width="210" height="8" as="geometry" />
        </mxCell>
        <mxCell id="h9WK51subfuifpHOhjPq-50" value="-----------------------------------" style="text;align=left;verticalAlign=top;spacingLeft=4;spacingRight=4;overflow=hidden;rotatable=0;points=[[0,0.5],[1,0.5]];portConstraint=eastwest;" vertex="1" parent="h9WK51subfuifpHOhjPq-47">
          <mxGeometry y="60" width="210" height="26" as="geometry" />
        </mxCell>
        <mxCell id="h9WK51subfuifpHOhjPq-51" value="Â " style="text;align=left;verticalAlign=top;spacingLeft=4;spacingRight=4;overflow=hidden;rotatable=0;points=[[0,0.5],[1,0.5]];portConstraint=eastwest;" vertex="1" parent="h9WK51subfuifpHOhjPq-47">
          <mxGeometry y="86" width="210" height="26" as="geometry" />
        </mxCell>
        <mxCell id="h9WK51subfuifpHOhjPq-52" value="Mini Boss" style="swimlane;fontStyle=2;align=center;verticalAlign=top;childLayout=stackLayout;horizontal=1;startSize=26;horizontalStack=0;resizeParent=1;resizeLast=0;collapsible=1;marginBottom=0;rounded=0;shadow=0;strokeWidth=1;" vertex="1" parent="WIyWlLk6GJQsqaUBKTNV-1">
          <mxGeometry x="-230" y="1040" width="210" height="112" as="geometry">
            <mxRectangle x="230" y="140" width="160" height="26" as="alternateBounds" />
          </mxGeometry>
        </mxCell>
        <mxCell id="h9WK51subfuifpHOhjPq-53" value="-----------------------------------" style="text;align=left;verticalAlign=top;spacingLeft=4;spacingRight=4;overflow=hidden;rotatable=0;points=[[0,0.5],[1,0.5]];portConstraint=eastwest;rounded=0;shadow=0;html=0;" vertex="1" parent="h9WK51subfuifpHOhjPq-52">
          <mxGeometry y="26" width="210" height="26" as="geometry" />
        </mxCell>
        <mxCell id="h9WK51subfuifpHOhjPq-54" value="" style="line;html=1;strokeWidth=1;align=left;verticalAlign=middle;spacingTop=-1;spacingLeft=3;spacingRight=3;rotatable=0;labelPosition=right;points=[];portConstraint=eastwest;" vertex="1" parent="h9WK51subfuifpHOhjPq-52">
          <mxGeometry y="52" width="210" height="8" as="geometry" />
        </mxCell>
        <mxCell id="h9WK51subfuifpHOhjPq-55" value="-----------------------------------" style="text;align=left;verticalAlign=top;spacingLeft=4;spacingRight=4;overflow=hidden;rotatable=0;points=[[0,0.5],[1,0.5]];portConstraint=eastwest;" vertex="1" parent="h9WK51subfuifpHOhjPq-52">
          <mxGeometry y="60" width="210" height="26" as="geometry" />
        </mxCell>
        <mxCell id="h9WK51subfuifpHOhjPq-56" value="Â " style="text;align=left;verticalAlign=top;spacingLeft=4;spacingRight=4;overflow=hidden;rotatable=0;points=[[0,0.5],[1,0.5]];portConstraint=eastwest;" vertex="1" parent="h9WK51subfuifpHOhjPq-52">
          <mxGeometry y="86" width="210" height="26" as="geometry" />
        </mxCell>
        <mxCell id="h9WK51subfuifpHOhjPq-64" style="edgeStyle=orthogonalEdgeStyle;rounded=0;orthogonalLoop=1;jettySize=auto;html=1;exitX=0.5;exitY=0;exitDx=0;exitDy=0;entryX=0.514;entryY=0.962;entryDx=0;entryDy=0;entryPerimeter=0;" edge="1" parent="WIyWlLk6GJQsqaUBKTNV-1" source="h9WK51subfuifpHOhjPq-52" target="h9WK51subfuifpHOhjPq-41">
          <mxGeometry relative="1" as="geometry" />
        </mxCell>
        <mxCell id="h9WK51subfuifpHOhjPq-66" style="edgeStyle=orthogonalEdgeStyle;rounded=0;orthogonalLoop=1;jettySize=auto;html=1;exitX=0.5;exitY=0;exitDx=0;exitDy=0;entryX=0.51;entryY=1;entryDx=0;entryDy=0;entryPerimeter=0;" edge="1" parent="WIyWlLk6GJQsqaUBKTNV-1" source="h9WK51subfuifpHOhjPq-47" target="h9WK51subfuifpHOhjPq-41">
          <mxGeometry relative="1" as="geometry" />
        </mxCell>
        <mxCell id="h9WK51subfuifpHOhjPq-76" style="edgeStyle=orthogonalEdgeStyle;rounded=0;orthogonalLoop=1;jettySize=auto;html=1;exitX=0.5;exitY=0;exitDx=0;exitDy=0;entryX=0.5;entryY=1;entryDx=0;entryDy=0;" edge="1" parent="WIyWlLk6GJQsqaUBKTNV-1" source="h9WK51subfuifpHOhjPq-71" target="h9WK51subfuifpHOhjPq-0">
          <mxGeometry relative="1" as="geometry" />
        </mxCell>
        <mxCell id="h9WK51subfuifpHOhjPq-71" value="Abertura" style="swimlane;fontStyle=2;align=center;verticalAlign=top;childLayout=stackLayout;horizontal=1;startSize=26;horizontalStack=0;resizeParent=1;resizeLast=0;collapsible=1;marginBottom=0;rounded=0;shadow=0;strokeWidth=1;" vertex="1" parent="WIyWlLk6GJQsqaUBKTNV-1">
          <mxGeometry x="-170" y="600" width="210" height="112" as="geometry">
            <mxRectangle x="230" y="140" width="160" height="26" as="alternateBounds" />
          </mxGeometry>
        </mxCell>
        <mxCell id="h9WK51subfuifpHOhjPq-72" value="-----------------------------------" style="text;align=left;verticalAlign=top;spacingLeft=4;spacingRight=4;overflow=hidden;rotatable=0;points=[[0,0.5],[1,0.5]];portConstraint=eastwest;rounded=0;shadow=0;html=0;" vertex="1" parent="h9WK51subfuifpHOhjPq-71">
          <mxGeometry y="26" width="210" height="26" as="geometry" />
        </mxCell>
        <mxCell id="h9WK51subfuifpHOhjPq-73" value="" style="line;html=1;strokeWidth=1;align=left;verticalAlign=middle;spacingTop=-1;spacingLeft=3;spacingRight=3;rotatable=0;labelPosition=right;points=[];portConstraint=eastwest;" vertex="1" parent="h9WK51subfuifpHOhjPq-71">
          <mxGeometry y="52" width="210" height="8" as="geometry" />
        </mxCell>
        <mxCell id="h9WK51subfuifpHOhjPq-74" value="-----------------------------------" style="text;align=left;verticalAlign=top;spacingLeft=4;spacingRight=4;overflow=hidden;rotatable=0;points=[[0,0.5],[1,0.5]];portConstraint=eastwest;" vertex="1" parent="h9WK51subfuifpHOhjPq-71">
          <mxGeometry y="60" width="210" height="26" as="geometry" />
        </mxCell>
        <mxCell id="h9WK51subfuifpHOhjPq-75" value="Â " style="text;align=left;verticalAlign=top;spacingLeft=4;spacingRight=4;overflow=hidden;rotatable=0;points=[[0,0.5],[1,0.5]];portConstraint=eastwest;" vertex="1" parent="h9WK51subfuifpHOhjPq-71">
          <mxGeometry y="86" width="210" height="26" as="geometry" />
        </mxCell>
        <mxCell id="h9WK51subfuifpHOhjPq-106" style="edgeStyle=orthogonalEdgeStyle;rounded=0;orthogonalLoop=1;jettySize=auto;html=1;exitX=0.5;exitY=0;exitDx=0;exitDy=0;entryX=0.5;entryY=1;entryDx=0;entryDy=0;" edge="1" parent="WIyWlLk6GJQsqaUBKTNV-1" source="h9WK51subfuifpHOhjPq-77" target="h9WK51subfuifpHOhjPq-0">
          <mxGeometry relative="1" as="geometry" />
        </mxCell>
        <mxCell id="h9WK51subfuifpHOhjPq-77" value="Escolhas" style="swimlane;fontStyle=2;align=center;verticalAlign=top;childLayout=stackLayout;horizontal=1;startSize=26;horizontalStack=0;resizeParent=1;resizeLast=0;collapsible=1;marginBottom=0;rounded=0;shadow=0;strokeWidth=1;" vertex="1" parent="WIyWlLk6GJQsqaUBKTNV-1">
          <mxGeometry x="320" y="600" width="210" height="164" as="geometry">
            <mxRectangle x="230" y="140" width="160" height="26" as="alternateBounds" />
          </mxGeometry>
        </mxCell>
        <mxCell id="h9WK51subfuifpHOhjPq-78" value="-----------------------------------" style="text;align=left;verticalAlign=top;spacingLeft=4;spacingRight=4;overflow=hidden;rotatable=0;points=[[0,0.5],[1,0.5]];portConstraint=eastwest;rounded=0;shadow=0;html=0;" vertex="1" parent="h9WK51subfuifpHOhjPq-77">
          <mxGeometry y="26" width="210" height="26" as="geometry" />
        </mxCell>
        <mxCell id="h9WK51subfuifpHOhjPq-79" value="" style="line;html=1;strokeWidth=1;align=left;verticalAlign=middle;spacingTop=-1;spacingLeft=3;spacingRight=3;rotatable=0;labelPosition=right;points=[];portConstraint=eastwest;" vertex="1" parent="h9WK51subfuifpHOhjPq-77">
          <mxGeometry y="52" width="210" height="8" as="geometry" />
        </mxCell>
        <mxCell id="h9WK51subfuifpHOhjPq-80" value="string getNarracaoArquivo()" style="text;align=left;verticalAlign=top;spacingLeft=4;spacingRight=4;overflow=hidden;rotatable=0;points=[[0,0.5],[1,0.5]];portConstraint=eastwest;" vertex="1" parent="h9WK51subfuifpHOhjPq-77">
          <mxGeometry y="60" width="210" height="26" as="geometry" />
        </mxCell>
        <mxCell id="h9WK51subfuifpHOhjPq-109" value="void escreverNarracao( )" style="text;align=left;verticalAlign=top;spacingLeft=4;spacingRight=4;overflow=hidden;rotatable=0;points=[[0,0.5],[1,0.5]];portConstraint=eastwest;" vertex="1" parent="h9WK51subfuifpHOhjPq-77">
          <mxGeometry y="86" width="210" height="26" as="geometry" />
        </mxCell>
        <mxCell id="h9WK51subfuifpHOhjPq-110" value="void escreverNarracao( )" style="text;align=left;verticalAlign=top;spacingLeft=4;spacingRight=4;overflow=hidden;rotatable=0;points=[[0,0.5],[1,0.5]];portConstraint=eastwest;" vertex="1" parent="h9WK51subfuifpHOhjPq-77">
          <mxGeometry y="112" width="210" height="26" as="geometry" />
        </mxCell>
        <mxCell id="h9WK51subfuifpHOhjPq-81" value="Â " style="text;align=left;verticalAlign=top;spacingLeft=4;spacingRight=4;overflow=hidden;rotatable=0;points=[[0,0.5],[1,0.5]];portConstraint=eastwest;" vertex="1" parent="h9WK51subfuifpHOhjPq-77">
          <mxGeometry y="138" width="210" height="26" as="geometry" />
        </mxCell>
        <mxCell id="h9WK51subfuifpHOhjPq-92" style="edgeStyle=orthogonalEdgeStyle;rounded=0;orthogonalLoop=1;jettySize=auto;html=1;exitX=0.5;exitY=0;exitDx=0;exitDy=0;entryX=0.5;entryY=1;entryDx=0;entryDy=0;" edge="1" parent="WIyWlLk6GJQsqaUBKTNV-1" source="h9WK51subfuifpHOhjPq-82" target="h9WK51subfuifpHOhjPq-0">
          <mxGeometry relative="1" as="geometry" />
        </mxCell>
        <mxCell id="h9WK51subfuifpHOhjPq-82" value="Inventario" style="swimlane;fontStyle=2;align=center;verticalAlign=top;childLayout=stackLayout;horizontal=1;startSize=26;horizontalStack=0;resizeParent=1;resizeLast=0;collapsible=1;marginBottom=0;rounded=0;shadow=0;strokeWidth=1;" vertex="1" parent="WIyWlLk6GJQsqaUBKTNV-1">
          <mxGeometry x="70" y="600" width="210" height="138" as="geometry">
            <mxRectangle x="230" y="140" width="160" height="26" as="alternateBounds" />
          </mxGeometry>
        </mxCell>
        <mxCell id="h9WK51subfuifpHOhjPq-83" value="-----------------------------------" style="text;align=left;verticalAlign=top;spacingLeft=4;spacingRight=4;overflow=hidden;rotatable=0;points=[[0,0.5],[1,0.5]];portConstraint=eastwest;rounded=0;shadow=0;html=0;" vertex="1" parent="h9WK51subfuifpHOhjPq-82">
          <mxGeometry y="26" width="210" height="26" as="geometry" />
        </mxCell>
        <mxCell id="h9WK51subfuifpHOhjPq-84" value="" style="line;html=1;strokeWidth=1;align=left;verticalAlign=middle;spacingTop=-1;spacingLeft=3;spacingRight=3;rotatable=0;labelPosition=right;points=[];portConstraint=eastwest;" vertex="1" parent="h9WK51subfuifpHOhjPq-82">
          <mxGeometry y="52" width="210" height="8" as="geometry" />
        </mxCell>
        <mxCell id="h9WK51subfuifpHOhjPq-85" value="void listarItems" style="text;align=left;verticalAlign=top;spacingLeft=4;spacingRight=4;overflow=hidden;rotatable=0;points=[[0,0.5],[1,0.5]];portConstraint=eastwest;" vertex="1" parent="h9WK51subfuifpHOhjPq-82">
          <mxGeometry y="60" width="210" height="26" as="geometry" />
        </mxCell>
        <mxCell id="h9WK51subfuifpHOhjPq-86" value="Â " style="text;align=left;verticalAlign=top;spacingLeft=4;spacingRight=4;overflow=hidden;rotatable=0;points=[[0,0.5],[1,0.5]];portConstraint=eastwest;" vertex="1" parent="h9WK51subfuifpHOhjPq-82">
          <mxGeometry y="86" width="210" height="26" as="geometry" />
        </mxCell>
        <mxCell id="h9WK51subfuifpHOhjPq-118" style="edgeStyle=orthogonalEdgeStyle;rounded=0;orthogonalLoop=1;jettySize=auto;html=1;exitX=0.5;exitY=0;exitDx=0;exitDy=0;entryX=0.5;entryY=1;entryDx=0;entryDy=0;" edge="1" parent="WIyWlLk6GJQsqaUBKTNV-1" source="h9WK51subfuifpHOhjPq-87" target="h9WK51subfuifpHOhjPq-77">
          <mxGeometry relative="1" as="geometry" />
        </mxCell>
        <mxCell id="h9WK51subfuifpHOhjPq-87" value="Combate" style="swimlane;fontStyle=2;align=center;verticalAlign=top;childLayout=stackLayout;horizontal=1;startSize=26;horizontalStack=0;resizeParent=1;resizeLast=0;collapsible=1;marginBottom=0;rounded=0;shadow=0;strokeWidth=1;" vertex="1" parent="WIyWlLk6GJQsqaUBKTNV-1">
          <mxGeometry x="320" y="840" width="210" height="112" as="geometry">
            <mxRectangle x="230" y="140" width="160" height="26" as="alternateBounds" />
          </mxGeometry>
        </mxCell>
        <mxCell id="h9WK51subfuifpHOhjPq-88" value="-----------------------------------" style="text;align=left;verticalAlign=top;spacingLeft=4;spacingRight=4;overflow=hidden;rotatable=0;points=[[0,0.5],[1,0.5]];portConstraint=eastwest;rounded=0;shadow=0;html=0;" vertex="1" parent="h9WK51subfuifpHOhjPq-87">
          <mxGeometry y="26" width="210" height="26" as="geometry" />
        </mxCell>
        <mxCell id="h9WK51subfuifpHOhjPq-89" value="" style="line;html=1;strokeWidth=1;align=left;verticalAlign=middle;spacingTop=-1;spacingLeft=3;spacingRight=3;rotatable=0;labelPosition=right;points=[];portConstraint=eastwest;" vertex="1" parent="h9WK51subfuifpHOhjPq-87">
          <mxGeometry y="52" width="210" height="8" as="geometry" />
        </mxCell>
        <mxCell id="h9WK51subfuifpHOhjPq-90" value="-----------------------------------" style="text;align=left;verticalAlign=top;spacingLeft=4;spacingRight=4;overflow=hidden;rotatable=0;points=[[0,0.5],[1,0.5]];portConstraint=eastwest;" vertex="1" parent="h9WK51subfuifpHOhjPq-87">
          <mxGeometry y="60" width="210" height="26" as="geometry" />
        </mxCell>
        <mxCell id="h9WK51subfuifpHOhjPq-91" value="Â " style="text;align=left;verticalAlign=top;spacingLeft=4;spacingRight=4;overflow=hidden;rotatable=0;points=[[0,0.5],[1,0.5]];portConstraint=eastwest;" vertex="1" parent="h9WK51subfuifpHOhjPq-87">
          <mxGeometry y="86" width="210" height="26" as="geometry" />
        </mxCell>
        <mxCell id="h9WK51subfuifpHOhjPq-95" value="Item" style="swimlane;fontStyle=2;align=center;verticalAlign=top;childLayout=stackLayout;horizontal=1;startSize=26;horizontalStack=0;resizeParent=1;resizeLast=0;collapsible=1;marginBottom=0;rounded=0;shadow=0;strokeWidth=1;" vertex="1" parent="WIyWlLk6GJQsqaUBKTNV-1">
          <mxGeometry x="-960" y="350" width="180" height="197" as="geometry">
            <mxRectangle x="230" y="140" width="160" height="26" as="alternateBounds" />
          </mxGeometry>
        </mxCell>
        <mxCell id="h9WK51subfuifpHOhjPq-96" value="string nome" style="text;align=left;verticalAlign=top;spacingLeft=4;spacingRight=4;overflow=hidden;rotatable=0;points=[[0,0.5],[1,0.5]];portConstraint=eastwest;rounded=0;shadow=0;html=0;" vertex="1" parent="h9WK51subfuifpHOhjPq-95">
          <mxGeometry y="26" width="180" height="26" as="geometry" />
        </mxCell>
        <mxCell id="h9WK51subfuifpHOhjPq-97" value="char tipo" style="text;align=left;verticalAlign=top;spacingLeft=4;spacingRight=4;overflow=hidden;rotatable=0;points=[[0,0.5],[1,0.5]];portConstraint=eastwest;rounded=0;shadow=0;html=0;" vertex="1" parent="h9WK51subfuifpHOhjPq-95">
          <mxGeometry y="52" width="180" height="26" as="geometry" />
        </mxCell>
        <mxCell id="h9WK51subfuifpHOhjPq-105" value="int combate" style="text;align=left;verticalAlign=top;spacingLeft=4;spacingRight=4;overflow=hidden;rotatable=0;points=[[0,0.5],[1,0.5]];portConstraint=eastwest;rounded=0;shadow=0;html=0;" vertex="1" parent="h9WK51subfuifpHOhjPq-95">
          <mxGeometry y="78" width="180" height="26" as="geometry" />
        </mxCell>
        <mxCell id="h9WK51subfuifpHOhjPq-103" value="int FA" style="text;align=left;verticalAlign=top;spacingLeft=4;spacingRight=4;overflow=hidden;rotatable=0;points=[[0,0.5],[1,0.5]];portConstraint=eastwest;rounded=0;shadow=0;html=0;" vertex="1" parent="h9WK51subfuifpHOhjPq-95">
          <mxGeometry y="104" width="180" height="26" as="geometry" />
        </mxCell>
        <mxCell id="h9WK51subfuifpHOhjPq-104" value="int dano" style="text;align=left;verticalAlign=top;spacingLeft=4;spacingRight=4;overflow=hidden;rotatable=0;points=[[0,0.5],[1,0.5]];portConstraint=eastwest;rounded=0;shadow=0;html=0;" vertex="1" parent="h9WK51subfuifpHOhjPq-95">
          <mxGeometry y="130" width="180" height="26" as="geometry" />
        </mxCell>
        <mxCell id="h9WK51subfuifpHOhjPq-98" value="" style="line;html=1;strokeWidth=1;align=left;verticalAlign=middle;spacingTop=-1;spacingLeft=3;spacingRight=3;rotatable=0;labelPosition=right;points=[];portConstraint=eastwest;" vertex="1" parent="h9WK51subfuifpHOhjPq-95">
          <mxGeometry y="156" width="180" height="8" as="geometry" />
        </mxCell>
        <mxCell id="h9WK51subfuifpHOhjPq-99" value="Get e Set para cada atributo" style="text;align=left;verticalAlign=top;spacingLeft=4;spacingRight=4;overflow=hidden;rotatable=0;points=[[0,0.5],[1,0.5]];portConstraint=eastwest;" vertex="1" parent="h9WK51subfuifpHOhjPq-95">
          <mxGeometry y="164" width="180" height="26" as="geometry" />
        </mxCell>
      </root>
    </mxGraphModel>
  </diagram>
  <diagram id="MsXtXQqgedcD1XmJj7Pi" name="PÃ¡gina-2">
    <mxGraphModel dx="2380" dy="1373" grid="1" gridSize="10" guides="1" tooltips="1" connect="1" arrows="1" fold="1" page="1" pageScale="1" pageWidth="827" pageHeight="1169" math="0" shadow="0">
      <root>
        <mxCell id="0" />
        <mxCell id="1" parent="0" />
        <mxCell id="0IeZw_Ro6e0uiJsxBE5E-1" value="Loop Principal" style="rounded=0;whiteSpace=wrap;html=1;" vertex="1" parent="1">
          <mxGeometry x="320" y="200" width="120" height="60" as="geometry" />
        </mxCell>
        <mxCell id="0IeZw_Ro6e0uiJsxBE5E-2" value="Le arquivo. Apresenta na tela" style="rounded=0;whiteSpace=wrap;html=1;" vertex="1" parent="1">
          <mxGeometry x="320" y="300" width="120" height="60" as="geometry" />
        </mxCell>
        <mxCell id="0IeZw_Ro6e0uiJsxBE5E-3" value="Direciona para prox. arquivo selecionado" style="rounded=0;whiteSpace=wrap;html=1;" vertex="1" parent="1">
          <mxGeometry x="480" y="960.06" width="120" height="60" as="geometry" />
        </mxCell>
        <mxCell id="0IeZw_Ro6e0uiJsxBE5E-4" value="Entrar em combate" style="rounded=0;whiteSpace=wrap;html=1;" vertex="1" parent="1">
          <mxGeometry x="480" y="1350" width="120" height="60" as="geometry" />
        </mxCell>
        <mxCell id="0IeZw_Ro6e0uiJsxBE5E-24" style="edgeStyle=orthogonalEdgeStyle;rounded=0;orthogonalLoop=1;jettySize=auto;html=1;exitX=1;exitY=0.5;exitDx=0;exitDy=0;entryX=0.5;entryY=0;entryDx=0;entryDy=0;" edge="1" parent="1" source="0IeZw_Ro6e0uiJsxBE5E-5" target="0IeZw_Ro6e0uiJsxBE5E-7">
          <mxGeometry relative="1" as="geometry">
            <Array as="points">
              <mxPoint x="670" y="1070.06" />
              <mxPoint x="670" y="820.06" />
              <mxPoint x="380" y="820.06" />
            </Array>
          </mxGeometry>
        </mxCell>
        <mxCell id="0IeZw_Ro6e0uiJsxBE5E-5" value="Pegar item" style="rounded=0;whiteSpace=wrap;html=1;" vertex="1" parent="1">
          <mxGeometry x="480" y="1040.06" width="120" height="60" as="geometry" />
        </mxCell>
        <mxCell id="0IeZw_Ro6e0uiJsxBE5E-22" style="edgeStyle=orthogonalEdgeStyle;rounded=0;orthogonalLoop=1;jettySize=auto;html=1;exitX=0.5;exitY=1;exitDx=0;exitDy=0;entryX=0;entryY=0.5;entryDx=0;entryDy=0;" edge="1" parent="1" source="0IeZw_Ro6e0uiJsxBE5E-7" target="0IeZw_Ro6e0uiJsxBE5E-5">
          <mxGeometry relative="1" as="geometry" />
        </mxCell>
        <mxCell id="0IeZw_Ro6e0uiJsxBE5E-23" value="I" style="edgeLabel;html=1;align=center;verticalAlign=middle;resizable=0;points=[];" vertex="1" connectable="0" parent="0IeZw_Ro6e0uiJsxBE5E-22">
          <mxGeometry x="0.6128" y="-3" relative="1" as="geometry">
            <mxPoint x="1" as="offset" />
          </mxGeometry>
        </mxCell>
        <mxCell id="0IeZw_Ro6e0uiJsxBE5E-25" style="edgeStyle=orthogonalEdgeStyle;rounded=0;orthogonalLoop=1;jettySize=auto;html=1;exitX=0.5;exitY=1;exitDx=0;exitDy=0;entryX=0;entryY=0.5;entryDx=0;entryDy=0;" edge="1" parent="1" source="0IeZw_Ro6e0uiJsxBE5E-7" target="0IeZw_Ro6e0uiJsxBE5E-3">
          <mxGeometry relative="1" as="geometry" />
        </mxCell>
        <mxCell id="0IeZw_Ro6e0uiJsxBE5E-26" value="Numero" style="edgeLabel;html=1;align=center;verticalAlign=middle;resizable=0;points=[];" vertex="1" connectable="0" parent="0IeZw_Ro6e0uiJsxBE5E-25">
          <mxGeometry x="0.3095" y="4" relative="1" as="geometry">
            <mxPoint x="1" as="offset" />
          </mxGeometry>
        </mxCell>
        <mxCell id="0IeZw_Ro6e0uiJsxBE5E-48" style="edgeStyle=orthogonalEdgeStyle;rounded=0;orthogonalLoop=1;jettySize=auto;html=1;exitX=0.5;exitY=1;exitDx=0;exitDy=0;entryX=0;entryY=0.5;entryDx=0;entryDy=0;" edge="1" parent="1" source="0IeZw_Ro6e0uiJsxBE5E-7" target="0IeZw_Ro6e0uiJsxBE5E-8">
          <mxGeometry relative="1" as="geometry" />
        </mxCell>
        <mxCell id="0IeZw_Ro6e0uiJsxBE5E-7" value="Seleciona opcao&lt;div&gt;cena&lt;/div&gt;" style="rhombus;whiteSpace=wrap;html=1;" vertex="1" parent="1">
          <mxGeometry x="320" y="840.06" width="120" height="100" as="geometry" />
        </mxCell>
        <mxCell id="0IeZw_Ro6e0uiJsxBE5E-8" value="Acessar Invetario" style="rounded=0;whiteSpace=wrap;html=1;" vertex="1" parent="1">
          <mxGeometry x="480" y="1120.06" width="120" height="60" as="geometry" />
        </mxCell>
        <mxCell id="0IeZw_Ro6e0uiJsxBE5E-9" value="Loop Combate | Inicio" style="rounded=0;whiteSpace=wrap;html=1;" vertex="1" parent="1">
          <mxGeometry x="910" y="200" width="140" height="60" as="geometry" />
        </mxCell>
        <mxCell id="0IeZw_Ro6e0uiJsxBE5E-10" value="Seleciona opcao" style="rhombus;whiteSpace=wrap;html=1;" vertex="1" parent="1">
          <mxGeometry x="920" y="290" width="120" height="100" as="geometry" />
        </mxCell>
        <mxCell id="0IeZw_Ro6e0uiJsxBE5E-11" value="Atacar" style="rounded=0;whiteSpace=wrap;html=1;" vertex="1" parent="1">
          <mxGeometry x="1080" y="400" width="120" height="60" as="geometry" />
        </mxCell>
        <mxCell id="0IeZw_Ro6e0uiJsxBE5E-12" value="Fugir" style="rounded=0;whiteSpace=wrap;html=1;" vertex="1" parent="1">
          <mxGeometry x="1080" y="480" width="120" height="60" as="geometry" />
        </mxCell>
        <mxCell id="0IeZw_Ro6e0uiJsxBE5E-13" value="Pegar item" style="rounded=0;whiteSpace=wrap;html=1;" vertex="1" parent="1">
          <mxGeometry x="1410" y="310" width="120" height="60" as="geometry" />
        </mxCell>
        <mxCell id="0IeZw_Ro6e0uiJsxBE5E-14" value="Acessar Invetario" style="rounded=0;whiteSpace=wrap;html=1;" vertex="1" parent="1">
          <mxGeometry x="1480" y="990" width="120" height="60" as="geometry" />
        </mxCell>
        <mxCell id="0IeZw_Ro6e0uiJsxBE5E-18" style="edgeStyle=orthogonalEdgeStyle;rounded=0;orthogonalLoop=1;jettySize=auto;html=1;exitX=0.5;exitY=1;exitDx=0;exitDy=0;" edge="1" parent="1" source="0IeZw_Ro6e0uiJsxBE5E-15" target="0IeZw_Ro6e0uiJsxBE5E-16">
          <mxGeometry relative="1" as="geometry" />
        </mxCell>
        <mxCell id="0IeZw_Ro6e0uiJsxBE5E-15" value="Loop invetÃ¡rio" style="rounded=0;whiteSpace=wrap;html=1;" vertex="1" parent="1">
          <mxGeometry x="1760" y="200" width="120" height="60" as="geometry" />
        </mxCell>
        <mxCell id="0IeZw_Ro6e0uiJsxBE5E-19" style="edgeStyle=orthogonalEdgeStyle;rounded=0;orthogonalLoop=1;jettySize=auto;html=1;exitX=0.5;exitY=1;exitDx=0;exitDy=0;entryX=0.5;entryY=0;entryDx=0;entryDy=0;" edge="1" parent="1" source="0IeZw_Ro6e0uiJsxBE5E-16" target="0IeZw_Ro6e0uiJsxBE5E-17">
          <mxGeometry relative="1" as="geometry" />
        </mxCell>
        <mxCell id="0IeZw_Ro6e0uiJsxBE5E-16" value="Mostra itens" style="rounded=0;whiteSpace=wrap;html=1;" vertex="1" parent="1">
          <mxGeometry x="1760" y="300" width="120" height="60" as="geometry" />
        </mxCell>
        <mxCell id="0IeZw_Ro6e0uiJsxBE5E-17" value="Pode utilizar/equipar itens" style="rounded=0;whiteSpace=wrap;html=1;" vertex="1" parent="1">
          <mxGeometry x="1760" y="400" width="120" height="60" as="geometry" />
        </mxCell>
        <mxCell id="0IeZw_Ro6e0uiJsxBE5E-20" value="Loop Combate | Batalha" style="rounded=0;whiteSpace=wrap;html=1;" vertex="1" parent="1">
          <mxGeometry x="1400" y="200" width="140" height="60" as="geometry" />
        </mxCell>
        <mxCell id="0IeZw_Ro6e0uiJsxBE5E-47" style="edgeStyle=orthogonalEdgeStyle;rounded=0;orthogonalLoop=1;jettySize=auto;html=1;exitX=0.5;exitY=1;exitDx=0;exitDy=0;" edge="1" parent="1" source="0IeZw_Ro6e0uiJsxBE5E-27" target="0IeZw_Ro6e0uiJsxBE5E-28">
          <mxGeometry relative="1" as="geometry" />
        </mxCell>
        <mxCell id="0IeZw_Ro6e0uiJsxBE5E-49" style="edgeStyle=orthogonalEdgeStyle;rounded=0;orthogonalLoop=1;jettySize=auto;html=1;exitX=0.5;exitY=1;exitDx=0;exitDy=0;entryX=0;entryY=0.5;entryDx=0;entryDy=0;" edge="1" parent="1" source="0IeZw_Ro6e0uiJsxBE5E-27" target="0IeZw_Ro6e0uiJsxBE5E-30">
          <mxGeometry relative="1" as="geometry" />
        </mxCell>
        <mxCell id="0IeZw_Ro6e0uiJsxBE5E-27" value="Tipo de arquivo?" style="rhombus;whiteSpace=wrap;html=1;" vertex="1" parent="1">
          <mxGeometry x="320" y="390" width="120" height="100" as="geometry" />
        </mxCell>
        <mxCell id="0IeZw_Ro6e0uiJsxBE5E-28" value="Cena" style="rounded=0;whiteSpace=wrap;html=1;" vertex="1" parent="1">
          <mxGeometry x="480" y="479.99999999999994" width="120" height="60" as="geometry" />
        </mxCell>
        <mxCell id="0IeZw_Ro6e0uiJsxBE5E-30" value="Monstro" style="rounded=0;whiteSpace=wrap;html=1;" vertex="1" parent="1">
          <mxGeometry x="480" y="560" width="120" height="60" as="geometry" />
        </mxCell>
        <mxCell id="0IeZw_Ro6e0uiJsxBE5E-31" value="Opcoes de Cena" style="rounded=0;whiteSpace=wrap;html=1;" vertex="1" parent="1">
          <mxGeometry x="640" y="479.99999999999994" width="120" height="60" as="geometry" />
        </mxCell>
        <mxCell id="0IeZw_Ro6e0uiJsxBE5E-33" value="Opcoes de monstro" style="rounded=0;whiteSpace=wrap;html=1;" vertex="1" parent="1">
          <mxGeometry x="640" y="560" width="120" height="60" as="geometry" />
        </mxCell>
        <mxCell id="0IeZw_Ro6e0uiJsxBE5E-44" style="edgeStyle=orthogonalEdgeStyle;rounded=0;orthogonalLoop=1;jettySize=auto;html=1;exitX=0.5;exitY=1;exitDx=0;exitDy=0;entryX=0;entryY=0.5;entryDx=0;entryDy=0;" edge="1" parent="1" source="0IeZw_Ro6e0uiJsxBE5E-41" target="0IeZw_Ro6e0uiJsxBE5E-4">
          <mxGeometry relative="1" as="geometry" />
        </mxCell>
        <mxCell id="0IeZw_Ro6e0uiJsxBE5E-45" style="edgeStyle=orthogonalEdgeStyle;rounded=0;orthogonalLoop=1;jettySize=auto;html=1;exitX=0.5;exitY=1;exitDx=0;exitDy=0;entryX=0;entryY=0.5;entryDx=0;entryDy=0;" edge="1" parent="1" source="0IeZw_Ro6e0uiJsxBE5E-41" target="0IeZw_Ro6e0uiJsxBE5E-43">
          <mxGeometry relative="1" as="geometry" />
        </mxCell>
        <mxCell id="0IeZw_Ro6e0uiJsxBE5E-46" style="edgeStyle=orthogonalEdgeStyle;rounded=0;orthogonalLoop=1;jettySize=auto;html=1;exitX=0.5;exitY=1;exitDx=0;exitDy=0;entryX=0;entryY=0.5;entryDx=0;entryDy=0;" edge="1" parent="1" source="0IeZw_Ro6e0uiJsxBE5E-41" target="0IeZw_Ro6e0uiJsxBE5E-42">
          <mxGeometry relative="1" as="geometry" />
        </mxCell>
        <mxCell id="0IeZw_Ro6e0uiJsxBE5E-41" value="Seleciona opcao&lt;div&gt;monstro&lt;/div&gt;" style="rhombus;whiteSpace=wrap;html=1;" vertex="1" parent="1">
          <mxGeometry x="320" y="1260" width="120" height="100" as="geometry" />
        </mxCell>
        <mxCell id="0IeZw_Ro6e0uiJsxBE5E-42" value="Acessar Invetario" style="rounded=0;whiteSpace=wrap;html=1;" vertex="1" parent="1">
          <mxGeometry x="480" y="1510" width="120" height="60" as="geometry" />
        </mxCell>
        <mxCell id="rwFUi3FTyj8RXyokpP2L-2" style="edgeStyle=orthogonalEdgeStyle;rounded=0;orthogonalLoop=1;jettySize=auto;html=1;exitX=1;exitY=0.5;exitDx=0;exitDy=0;" edge="1" parent="1" source="0IeZw_Ro6e0uiJsxBE5E-43" target="rwFUi3FTyj8RXyokpP2L-1">
          <mxGeometry relative="1" as="geometry" />
        </mxCell>
        <mxCell id="0IeZw_Ro6e0uiJsxBE5E-43" value="Fugir" style="rounded=0;whiteSpace=wrap;html=1;" vertex="1" parent="1">
          <mxGeometry x="480" y="1430" width="120" height="60" as="geometry" />
        </mxCell>
        <mxCell id="rwFUi3FTyj8RXyokpP2L-1" value="Prox. Cena" style="rounded=0;whiteSpace=wrap;html=1;" vertex="1" parent="1">
          <mxGeometry x="650" y="1430" width="120" height="60" as="geometry" />
        </mxCell>
      </root>
    </mxGraphModel>
  </diagram>
  <diagram id="G5p31YxpHDoTQ8e1Jke8" name="PÃ¡gina-3">
    <mxGraphModel dx="2951" dy="1177" grid="1" gridSize="10" guides="1" tooltips="1" connect="1" arrows="1" fold="1" page="1" pageScale="1" pageWidth="827" pageHeight="1169" math="0" shadow="0">
      <root>
        <mxCell id="0" />
        <mxCell id="1" parent="0" />
        <mxCell id="qhkn-fzB2FmtK1_-fOfi-12" style="edgeStyle=orthogonalEdgeStyle;rounded=0;orthogonalLoop=1;jettySize=auto;html=1;exitX=0.5;exitY=1;exitDx=0;exitDy=0;entryX=0;entryY=0.5;entryDx=0;entryDy=0;" parent="1" source="qhkn-fzB2FmtK1_-fOfi-1" target="qhkn-fzB2FmtK1_-fOfi-7" edge="1">
          <mxGeometry relative="1" as="geometry" />
        </mxCell>
        <mxCell id="qhkn-fzB2FmtK1_-fOfi-1" value="&lt;b&gt;Fila de processos&lt;/b&gt;" style="swimlane;fontStyle=0;childLayout=stackLayout;horizontal=1;startSize=30;horizontalStack=0;resizeParent=1;resizeParentMax=0;resizeLast=0;collapsible=1;marginBottom=0;whiteSpace=wrap;html=1;" parent="1" vertex="1">
          <mxGeometry x="1050" y="460" width="140" height="90" as="geometry" />
        </mxCell>
        <mxCell id="qhkn-fzB2FmtK1_-fOfi-2" value="Item 1" style="text;strokeColor=none;fillColor=none;align=left;verticalAlign=middle;spacingLeft=4;spacingRight=4;overflow=hidden;points=[[0,0.5],[1,0.5]];portConstraint=eastwest;rotatable=0;whiteSpace=wrap;html=1;" parent="qhkn-fzB2FmtK1_-fOfi-1" vertex="1">
          <mxGeometry y="30" width="140" height="30" as="geometry" />
        </mxCell>
        <mxCell id="qhkn-fzB2FmtK1_-fOfi-3" value="Item 3" style="text;strokeColor=none;fillColor=none;align=left;verticalAlign=middle;spacingLeft=4;spacingRight=4;overflow=hidden;points=[[0,0.5],[1,0.5]];portConstraint=eastwest;rotatable=0;whiteSpace=wrap;html=1;" parent="qhkn-fzB2FmtK1_-fOfi-1" vertex="1">
          <mxGeometry y="60" width="140" height="30" as="geometry" />
        </mxCell>
        <mxCell id="qhkn-fzB2FmtK1_-fOfi-6" value="" style="edgeStyle=orthogonalEdgeStyle;rounded=0;orthogonalLoop=1;jettySize=auto;html=1;exitX=1;exitY=0.5;exitDx=0;exitDy=0;entryX=0.5;entryY=0;entryDx=0;entryDy=0;" parent="1" source="qhkn-fzB2FmtK1_-fOfi-5" target="qhkn-fzB2FmtK1_-fOfi-1" edge="1">
          <mxGeometry x="-0.0076" y="10" relative="1" as="geometry">
            <mxPoint x="1040" y="420" as="targetPoint" />
            <Array as="points">
              <mxPoint x="1000" y="370" />
              <mxPoint x="1000" y="440" />
              <mxPoint x="1120" y="440" />
            </Array>
            <mxPoint as="offset" />
          </mxGeometry>
        </mxCell>
        <mxCell id="qhkn-fzB2FmtK1_-fOfi-5" value="&lt;b&gt;computingProcess()&lt;/b&gt;" style="rounded=0;whiteSpace=wrap;html=1;" parent="1" vertex="1">
          <mxGeometry x="827" y="340" width="120" height="60" as="geometry" />
        </mxCell>
        <mxCell id="qhkn-fzB2FmtK1_-fOfi-7" value="&lt;div&gt;&lt;b&gt;UsuÃ¡rio&lt;/b&gt;&lt;/div&gt;ExecuÃ§Ã£o processos:" style="rounded=0;whiteSpace=wrap;html=1;" parent="1" vertex="1">
          <mxGeometry x="1270" y="590" width="160" height="60" as="geometry" />
        </mxCell>
        <mxCell id="bKwWDUhkhQdgrjBo9Bwy-3" style="edgeStyle=orthogonalEdgeStyle;rounded=0;orthogonalLoop=1;jettySize=auto;html=1;exitX=1;exitY=0.5;exitDx=0;exitDy=0;" edge="1" parent="1" source="qhkn-fzB2FmtK1_-fOfi-8" target="bKwWDUhkhQdgrjBo9Bwy-1">
          <mxGeometry relative="1" as="geometry" />
        </mxCell>
        <mxCell id="qhkn-fzB2FmtK1_-fOfi-8" value="&lt;div&gt;&lt;b&gt;UsuÃ¡rio:&lt;/b&gt;&lt;/div&gt;ExecuÃ§Ã£o processos (pid):" style="rounded=0;whiteSpace=wrap;html=1;" parent="1" vertex="1">
          <mxGeometry x="1270" y="660" width="160" height="60" as="geometry" />
        </mxCell>
        <mxCell id="qhkn-fzB2FmtK1_-fOfi-13" style="edgeStyle=orthogonalEdgeStyle;rounded=0;orthogonalLoop=1;jettySize=auto;html=1;exitX=0.517;exitY=1.003;exitDx=0;exitDy=0;exitPerimeter=0;entryX=0;entryY=0.5;entryDx=0;entryDy=0;" parent="1" target="qhkn-fzB2FmtK1_-fOfi-8" edge="1">
          <mxGeometry relative="1" as="geometry">
            <mxPoint x="1122.38" y="580.0899999999999" as="sourcePoint" />
            <mxPoint x="1240" y="690" as="targetPoint" />
            <Array as="points">
              <mxPoint x="1122" y="690" />
            </Array>
          </mxGeometry>
        </mxCell>
        <mxCell id="qhkn-fzB2FmtK1_-fOfi-14" value="PUSH( )" style="text;html=1;align=center;verticalAlign=middle;whiteSpace=wrap;rounded=0;" parent="1" vertex="1">
          <mxGeometry x="1063" y="410" width="60" height="30" as="geometry" />
        </mxCell>
        <mxCell id="qhkn-fzB2FmtK1_-fOfi-15" value="POP( )" style="text;html=1;align=center;verticalAlign=middle;whiteSpace=wrap;rounded=0;" parent="1" vertex="1">
          <mxGeometry x="1123" y="590" width="60" height="30" as="geometry" />
        </mxCell>
        <mxCell id="qhkn-fzB2FmtK1_-fOfi-16" value="&lt;b&gt;TIPOS DE PROCESSO:&lt;/b&gt;&lt;div&gt;- GravaÃ§Ã£o&amp;nbsp;&lt;/div&gt;&lt;div&gt;- Leitura&lt;/div&gt;&lt;div&gt;- ImpressÃ£o&lt;/div&gt;&lt;div&gt;- CÃ¡lculo&lt;/div&gt;" style="rounded=0;whiteSpace=wrap;html=1;" parent="1" vertex="1">
          <mxGeometry x="50" y="20" width="150" height="100" as="geometry" />
        </mxCell>
        <mxCell id="qhkn-fzB2FmtK1_-fOfi-19" style="edgeStyle=orthogonalEdgeStyle;rounded=0;orthogonalLoop=1;jettySize=auto;html=1;exitX=0.5;exitY=1;exitDx=0;exitDy=0;entryX=0.5;entryY=0;entryDx=0;entryDy=0;" parent="1" source="qhkn-fzB2FmtK1_-fOfi-17" target="qhkn-fzB2FmtK1_-fOfi-18" edge="1">
          <mxGeometry relative="1" as="geometry" />
        </mxCell>
        <mxCell id="qhkn-fzB2FmtK1_-fOfi-23" style="edgeStyle=orthogonalEdgeStyle;rounded=0;orthogonalLoop=1;jettySize=auto;html=1;exitX=0.5;exitY=1;exitDx=0;exitDy=0;" parent="1" source="qhkn-fzB2FmtK1_-fOfi-17" target="qhkn-fzB2FmtK1_-fOfi-22" edge="1">
          <mxGeometry relative="1" as="geometry" />
        </mxCell>
        <mxCell id="qhkn-fzB2FmtK1_-fOfi-25" style="edgeStyle=orthogonalEdgeStyle;rounded=0;orthogonalLoop=1;jettySize=auto;html=1;exitX=0.5;exitY=1;exitDx=0;exitDy=0;" parent="1" source="qhkn-fzB2FmtK1_-fOfi-17" target="qhkn-fzB2FmtK1_-fOfi-20" edge="1">
          <mxGeometry relative="1" as="geometry" />
        </mxCell>
        <mxCell id="qhkn-fzB2FmtK1_-fOfi-17" value="&lt;b&gt;SUPERCLASSE PROCESSO:&lt;/b&gt;&lt;div&gt;apenas declaraÃ§Ãµes&lt;/div&gt;&lt;div&gt;uint32_t pid;&lt;/div&gt;&lt;div&gt;int execute( );&lt;/div&gt;" style="rounded=0;whiteSpace=wrap;html=1;" parent="1" vertex="1">
          <mxGeometry x="1156" y="20" width="170" height="100" as="geometry" />
        </mxCell>
        <mxCell id="qhkn-fzB2FmtK1_-fOfi-18" value="&lt;b&gt;SUBCLASSE PROCESSO:&lt;/b&gt;&lt;div&gt;ImplementaÃ§Ãµes execute():&lt;/div&gt;&lt;div&gt;- GravaÃ§Ã£o&amp;nbsp;&lt;/div&gt;" style="rounded=0;whiteSpace=wrap;html=1;" parent="1" vertex="1">
          <mxGeometry x="856" y="160" width="170" height="100" as="geometry" />
        </mxCell>
        <mxCell id="qhkn-fzB2FmtK1_-fOfi-20" value="&lt;b&gt;SUBCLASSE PROCESSO:&lt;/b&gt;&lt;div&gt;ImplementaÃ§Ãµes execute():&lt;/div&gt;&lt;div&gt;- Leitura&lt;/div&gt;" style="rounded=0;whiteSpace=wrap;html=1;" parent="1" vertex="1">
          <mxGeometry x="1056" y="160" width="170" height="100" as="geometry" />
        </mxCell>
        <mxCell id="qhkn-fzB2FmtK1_-fOfi-21" value="&lt;b&gt;SUBCLASSE PROCESSO:&lt;/b&gt;&lt;div&gt;ImplementaÃ§Ãµes execute():&lt;/div&gt;&lt;div&gt;- ImpressÃ£o&lt;/div&gt;" style="rounded=0;whiteSpace=wrap;html=1;" parent="1" vertex="1">
          <mxGeometry x="1256" y="160" width="170" height="100" as="geometry" />
        </mxCell>
        <mxCell id="qhkn-fzB2FmtK1_-fOfi-22" value="&lt;b&gt;SUBCLASSE PROCESSO:&lt;/b&gt;&lt;div&gt;ImplementaÃ§Ãµes execute():&lt;/div&gt;&lt;div&gt;- CÃ¡lculo&lt;/div&gt;" style="rounded=0;whiteSpace=wrap;html=1;" parent="1" vertex="1">
          <mxGeometry x="1456" y="160" width="170" height="100" as="geometry" />
        </mxCell>
        <mxCell id="qhkn-fzB2FmtK1_-fOfi-24" style="edgeStyle=orthogonalEdgeStyle;rounded=0;orthogonalLoop=1;jettySize=auto;html=1;exitX=0.5;exitY=1;exitDx=0;exitDy=0;entryX=0.464;entryY=0.018;entryDx=0;entryDy=0;entryPerimeter=0;" parent="1" source="qhkn-fzB2FmtK1_-fOfi-17" target="qhkn-fzB2FmtK1_-fOfi-21" edge="1">
          <mxGeometry relative="1" as="geometry" />
        </mxCell>
        <mxCell id="qhkn-fzB2FmtK1_-fOfi-26" value="&lt;b&gt;(ComputingProcess):&lt;/b&gt; executa o cÃ¡lculo de uma expressÃ£o e imprime o resultado do cÃ¡lculo.&lt;br&gt;Uma expressÃ£o Ã© formada por dois operandos e uma operaÃ§Ã£o (que pode ser +, -, * ou /). A expressÃ£o deve saber&lt;br&gt;como se executar. Por exemplo, se Ã© uma soma, entÃ£o o resultado do cÃ¡lculo Ã© a soma dos dois operandos." style="text;whiteSpace=wrap;html=1;fillColor=default;strokeColor=default;" parent="1" vertex="1">
          <mxGeometry x="50" y="140" width="510" height="110" as="geometry" />
        </mxCell>
        <UserObject label="&lt;b&gt;(WritingProcess):&lt;/b&gt; executa a gravaÃ§Ã£o de uma expressÃ£o em um arquivo de processos&lt;br&gt;(chamado computation.txt). Note que, se jÃ¡ existem expressÃµes gravadas no arquivo, o processo de gravaÃ§Ã£o nÃ£o&lt;br&gt;deve sobrescrevÃª-las." link="Processo de gravaÃ§Ã£o (WritingProcess): executa a gravaÃ§Ã£o de uma expressÃ£o em um arquivo de processos&#xa;(chamado computation.txt). Note que, se jÃ¡ existem expressÃµes gravadas no arquivo, o processo de gravaÃ§Ã£o nÃ£o&#xa;deve sobrescrevÃª-las." id="qhkn-fzB2FmtK1_-fOfi-27">
          <mxCell style="text;whiteSpace=wrap;html=1;fillColor=default;strokeColor=default;" parent="1" vertex="1">
            <mxGeometry x="50" y="260" width="510" height="100" as="geometry" />
          </mxCell>
        </UserObject>
        <UserObject label="&lt;b&gt;(ReadingProcess):&lt;/b&gt; deve ler completamente o arquivo de computaÃ§Ãµes (computation.txt) e,&lt;br&gt;para cada registro lido do arquivo deve criar um objeto de processo de cÃ¡lculo (ComputingProcess) e adicionÃ¡-lo&lt;br&gt;na lista de processos do sistema. Ao final da leitura, o processo deve âlimparâ o arquivo. Vale lembrar que cada&lt;br&gt;linha do arquivo Ã© uma expressÃ£o aritmÃ©tica." link="Processo de leitura (ReadingProcess): deve ler completamente o arquivo de computaÃ§Ãµes (computation.txt) e,&#xa;para cada registro lido do arquivo deve criar um objeto de processo de cÃ¡lculo (ComputingProcess) e adicionÃ¡-lo&#xa;na lista de processos do sistema. Ao final da leitura, o processo deve âlimparâ o arquivo. Vale lembrar que cada&#xa;linha do arquivo Ã© uma expressÃ£o aritmÃ©tica." id="qhkn-fzB2FmtK1_-fOfi-28">
          <mxCell style="text;whiteSpace=wrap;html=1;fillColor=default;strokeColor=default;" parent="1" vertex="1">
            <mxGeometry x="50" y="370" width="510" height="120" as="geometry" />
          </mxCell>
        </UserObject>
        <mxCell id="qhkn-fzB2FmtK1_-fOfi-29" value="&lt;b&gt;(PrintingProcess):&lt;/b&gt; tem por objetivo simplesmente imprimir na tela o pool de processos a&lt;br&gt;serem executados. Imprimindo o pid, o tipo do processo e atributos relacionados, se for o caso." style="text;whiteSpace=wrap;html=1;fillColor=default;strokeColor=default;" parent="1" vertex="1">
          <mxGeometry x="50" y="500" width="510" height="70" as="geometry" />
        </mxCell>
        <mxCell id="qhkn-fzB2FmtK1_-fOfi-30" value="&lt;b&gt;computation.txt&lt;/b&gt;" style="swimlane;fontStyle=0;childLayout=stackLayout;horizontal=1;startSize=30;horizontalStack=0;resizeParent=1;resizeParentMax=0;resizeLast=0;collapsible=1;marginBottom=0;whiteSpace=wrap;html=1;" parent="1" vertex="1">
          <mxGeometry x="1043" y="870" width="140" height="120" as="geometry" />
        </mxCell>
        <mxCell id="qhkn-fzB2FmtK1_-fOfi-31" value="Item 1" style="text;strokeColor=none;fillColor=none;align=left;verticalAlign=middle;spacingLeft=4;spacingRight=4;overflow=hidden;points=[[0,0.5],[1,0.5]];portConstraint=eastwest;rotatable=0;whiteSpace=wrap;html=1;" parent="qhkn-fzB2FmtK1_-fOfi-30" vertex="1">
          <mxGeometry y="30" width="140" height="30" as="geometry" />
        </mxCell>
        <mxCell id="qhkn-fzB2FmtK1_-fOfi-32" value="Item 2" style="text;strokeColor=none;fillColor=none;align=left;verticalAlign=middle;spacingLeft=4;spacingRight=4;overflow=hidden;points=[[0,0.5],[1,0.5]];portConstraint=eastwest;rotatable=0;whiteSpace=wrap;html=1;" parent="qhkn-fzB2FmtK1_-fOfi-30" vertex="1">
          <mxGeometry y="60" width="140" height="30" as="geometry" />
        </mxCell>
        <mxCell id="qhkn-fzB2FmtK1_-fOfi-33" value="Item 3" style="text;strokeColor=none;fillColor=none;align=left;verticalAlign=middle;spacingLeft=4;spacingRight=4;overflow=hidden;points=[[0,0.5],[1,0.5]];portConstraint=eastwest;rotatable=0;whiteSpace=wrap;html=1;" parent="qhkn-fzB2FmtK1_-fOfi-30" vertex="1">
          <mxGeometry y="90" width="140" height="30" as="geometry" />
        </mxCell>
        <mxCell id="qhkn-fzB2FmtK1_-fOfi-42" style="edgeStyle=orthogonalEdgeStyle;rounded=0;orthogonalLoop=1;jettySize=auto;html=1;exitX=1;exitY=0.5;exitDx=0;exitDy=0;" parent="1" source="qhkn-fzB2FmtK1_-fOfi-34" target="qhkn-fzB2FmtK1_-fOfi-40" edge="1">
          <mxGeometry relative="1" as="geometry" />
        </mxCell>
        <mxCell id="qhkn-fzB2FmtK1_-fOfi-34" value="&lt;div&gt;&lt;b&gt;readingProcess()&lt;/b&gt;&lt;/div&gt;" style="rounded=0;whiteSpace=wrap;html=1;" parent="1" vertex="1">
          <mxGeometry x="1241" y="915" width="160" height="60" as="geometry" />
        </mxCell>
        <mxCell id="qhkn-fzB2FmtK1_-fOfi-43" style="edgeStyle=orthogonalEdgeStyle;rounded=0;orthogonalLoop=1;jettySize=auto;html=1;exitX=1;exitY=0.5;exitDx=0;exitDy=0;entryX=0;entryY=0.5;entryDx=0;entryDy=0;" parent="1" source="qhkn-fzB2FmtK1_-fOfi-35" target="qhkn-fzB2FmtK1_-fOfi-32" edge="1">
          <mxGeometry relative="1" as="geometry" />
        </mxCell>
        <mxCell id="qhkn-fzB2FmtK1_-fOfi-35" value="&lt;div&gt;&lt;b&gt;writingProcess()&lt;/b&gt;&lt;/div&gt;" style="rounded=0;whiteSpace=wrap;html=1;" parent="1" vertex="1">
          <mxGeometry x="780" y="915" width="160" height="60" as="geometry" />
        </mxCell>
        <mxCell id="qhkn-fzB2FmtK1_-fOfi-37" style="edgeStyle=orthogonalEdgeStyle;rounded=0;orthogonalLoop=1;jettySize=auto;html=1;exitX=1;exitY=0.5;exitDx=0;exitDy=0;" parent="1" source="qhkn-fzB2FmtK1_-fOfi-32" target="qhkn-fzB2FmtK1_-fOfi-34" edge="1">
          <mxGeometry relative="1" as="geometry" />
        </mxCell>
        <mxCell id="qhkn-fzB2FmtK1_-fOfi-38" value="&lt;b&gt;Fila de processos&lt;/b&gt;" style="swimlane;fontStyle=0;childLayout=stackLayout;horizontal=1;startSize=30;horizontalStack=0;resizeParent=1;resizeParentMax=0;resizeLast=0;collapsible=1;marginBottom=0;whiteSpace=wrap;html=1;" parent="1" vertex="1">
          <mxGeometry x="1480" y="870" width="140" height="120" as="geometry" />
        </mxCell>
        <mxCell id="qhkn-fzB2FmtK1_-fOfi-39" value="Item 1" style="text;strokeColor=none;fillColor=none;align=left;verticalAlign=middle;spacingLeft=4;spacingRight=4;overflow=hidden;points=[[0,0.5],[1,0.5]];portConstraint=eastwest;rotatable=0;whiteSpace=wrap;html=1;" parent="qhkn-fzB2FmtK1_-fOfi-38" vertex="1">
          <mxGeometry y="30" width="140" height="30" as="geometry" />
        </mxCell>
        <mxCell id="qhkn-fzB2FmtK1_-fOfi-40" value="Item 2" style="text;strokeColor=none;fillColor=none;align=left;verticalAlign=middle;spacingLeft=4;spacingRight=4;overflow=hidden;points=[[0,0.5],[1,0.5]];portConstraint=eastwest;rotatable=0;whiteSpace=wrap;html=1;" parent="qhkn-fzB2FmtK1_-fOfi-38" vertex="1">
          <mxGeometry y="60" width="140" height="30" as="geometry" />
        </mxCell>
        <mxCell id="qhkn-fzB2FmtK1_-fOfi-41" value="Item 3" style="text;strokeColor=none;fillColor=none;align=left;verticalAlign=middle;spacingLeft=4;spacingRight=4;overflow=hidden;points=[[0,0.5],[1,0.5]];portConstraint=eastwest;rotatable=0;whiteSpace=wrap;html=1;" parent="qhkn-fzB2FmtK1_-fOfi-38" vertex="1">
          <mxGeometry y="90" width="140" height="30" as="geometry" />
        </mxCell>
        <mxCell id="qhkn-fzB2FmtK1_-fOfi-45" style="edgeStyle=orthogonalEdgeStyle;rounded=0;orthogonalLoop=1;jettySize=auto;html=1;exitX=1;exitY=0.5;exitDx=0;exitDy=0;entryX=0.5;entryY=0;entryDx=0;entryDy=0;" parent="1" source="qhkn-fzB2FmtK1_-fOfi-44" target="qhkn-fzB2FmtK1_-fOfi-1" edge="1">
          <mxGeometry relative="1" as="geometry">
            <Array as="points">
              <mxPoint x="947" y="440" />
              <mxPoint x="1120" y="440" />
            </Array>
          </mxGeometry>
        </mxCell>
        <mxCell id="qhkn-fzB2FmtK1_-fOfi-44" value="&lt;b&gt;writingProcess()&lt;/b&gt;" style="rounded=0;whiteSpace=wrap;html=1;" parent="1" vertex="1">
          <mxGeometry x="827" y="410" width="120" height="60" as="geometry" />
        </mxCell>
        <mxCell id="qhkn-fzB2FmtK1_-fOfi-48" style="edgeStyle=orthogonalEdgeStyle;rounded=0;orthogonalLoop=1;jettySize=auto;html=1;exitX=1;exitY=0.5;exitDx=0;exitDy=0;entryX=0.5;entryY=0;entryDx=0;entryDy=0;" parent="1" source="qhkn-fzB2FmtK1_-fOfi-46" target="qhkn-fzB2FmtK1_-fOfi-1" edge="1">
          <mxGeometry relative="1" as="geometry" />
        </mxCell>
        <mxCell id="qhkn-fzB2FmtK1_-fOfi-46" value="&lt;div&gt;&lt;b&gt;printingProcess()&lt;/b&gt;&lt;/div&gt;" style="rounded=0;whiteSpace=wrap;html=1;" parent="1" vertex="1">
          <mxGeometry x="827" y="480" width="123" height="60" as="geometry" />
        </mxCell>
        <mxCell id="bKwWDUhkhQdgrjBo9Bwy-1" value="&lt;b&gt;processo = filaProcesso.pop()&lt;/b&gt;&lt;div&gt;&lt;b&gt;if(processo.pid == pid){&lt;/b&gt;&lt;/div&gt;&lt;div&gt;&lt;b&gt;processo.execute()&lt;/b&gt;&lt;/div&gt;&lt;div&gt;&lt;b&gt;}&lt;/b&gt;&lt;/div&gt;&lt;div&gt;&lt;b&gt;else {&lt;/b&gt;&lt;/div&gt;&lt;div&gt;&lt;b&gt;filaProcesso.push(processo)&lt;/b&gt;&lt;/div&gt;&lt;div&gt;&lt;b&gt;}&lt;/b&gt;&lt;/div&gt;" style="rounded=0;whiteSpace=wrap;html=1;" vertex="1" parent="1">
          <mxGeometry x="1520" y="630" width="330" height="120" as="geometry" />
        </mxCell>
        <mxCell id="bKwWDUhkhQdgrjBo9Bwy-2" value="&lt;div&gt;&lt;b&gt;computing.txt&lt;/b&gt;&lt;/div&gt;1+1&lt;div&gt;2/2&lt;/div&gt;&lt;div&gt;5*5&lt;/div&gt;&lt;div&gt;5-3&lt;/div&gt;" style="rounded=0;whiteSpace=wrap;html=1;" vertex="1" parent="1">
          <mxGeometry x="1043" y="1000" width="137" height="130" as="geometry" />
        </mxCell>
      </root>
    </mxGraphModel>
  </diagram>
</mxfile>
